<svg width="732" height="190" xmlns="http://www.w3.org/2000/svg" xmlns:xlink="http://www.w3.org/1999/xlink" overflow="hidden"><defs><clipPath id="clip0"><rect x="166" y="264" width="732" height="190"/></clipPath></defs><g clip-path="url(#clip0)" transform="translate(-166 -264)"><text font-family="Arial,Arial_MSFontService,sans-serif" font-style="italic" font-weight="400" font-size="13" transform="translate(685.27 371)">deliver</text><rect x="168.5" y="377.5" width="122" height="23" stroke="#A5CA1A" stroke-linejoin="round" stroke-miterlimit="10" fill="none"/><text font-family="Arial,Arial_MSFontService,sans-serif" font-weight="400" font-size="13" transform="translate(179.478 394)">Blockchain client</text><rect x="407.5" y="378.5" width="122" height="23" stroke="#A5CA1A" stroke-linejoin="round" stroke-miterlimit="10" fill="none"/><text font-family="Arial,Arial_MSFontService,sans-serif" font-weight="400" font-size="13" transform="translate(418.425 395)">Blockchain client</text><rect x="623.5" y="381.5" width="101" height="23" stroke="#A5CA1A" stroke-linejoin="round" stroke-miterlimit="10" fill="none"/><text font-family="Arial,Arial_MSFontService,sans-serif" font-weight="400" font-size="16" transform="translate(640.528 399)">EVM Log</text><rect x="172.5" y="334.5" width="118" height="27" stroke="#008891" stroke-linejoin="round" stroke-miterlimit="10" fill="none"/><text fill="#008891" font-family="Arial,Arial_MSFontService,sans-serif" font-weight="400" font-size="24" transform="translate(181.666 356)">ADS_DO</text><rect x="407.5" y="295.5" width="122" height="19" stroke="#008891" stroke-linejoin="round" stroke-miterlimit="10" fill="none"/><text fill="#008891" font-family="Arial,Arial_MSFontService,sans-serif" font-weight="400" font-size="24" transform="translate(420.509 313)">ADS_SP</text><rect x="609.5" y="269.5" width="113" height="79" stroke="#E21A1A" stroke-linejoin="round" stroke-miterlimit="10" fill="none"/><text fill="#E21A1A" font-family="Arial,Arial_MSFontService,sans-serif" font-weight="400" font-size="16" transform="translate(637.627 296)">Storage <tspan font-size="16" x="-3.5" y="19">Manager </tspan><tspan font-size="16" x="-2.24664" y="38">Contract</tspan></text><rect x="771.5" y="275.5" width="114" height="72" stroke="#6B8689" stroke-linejoin="round" stroke-miterlimit="10" fill="none"/><text fill="#6B8689" font-family="Arial,Arial_MSFontService,sans-serif" font-weight="400" font-size="15" transform="translate(791.852 294)">Application</text><path d="M314.5 339 362.5 339 362.5 330.5 379.5 347.5 362.5 364.5 362.5 356 314.5 356Z" stroke="#000000" stroke-miterlimit="8" fill="none" fill-rule="evenodd"/><path d="M6.67282-0.409262 70.7092 0.461953 70.6956 1.46186 6.65922 0.590645ZM7.94484 4.10846 0 0 8.05367-3.8908ZM69.4236-3.05586 77.3684 1.0526 69.3147 4.9434Z" fill="#A4CA15" transform="matrix(1 0 0 -1 307.5 390.553)"/><path d="M553.167 392 609.461 392 609.461 393 553.167 393ZM554.5 396.5 546.5 392.5 554.5 388.5ZM608.127 388.5 616.127 392.5 608.127 396.5Z" fill="#A4CA15"/><path d="M499 319.5 499 370.623 498 370.623 498 319.5ZM502.5 369.289 498.5 377.289 494.5 369.289Z" fill="#6C147F"/><path d="M476.5 348.667C476.5 350.968 460.606 352.833 441 352.833 421.394 352.833 405.5 350.968 405.5 348.667" stroke="#6D177F" stroke-linejoin="round" stroke-miterlimit="10" fill="none" fill-rule="evenodd"/><path d="M405.5 348.667C405.5 346.366 421.394 344.5 441 344.5 460.606 344.5 476.5 346.366 476.5 348.667L476.5 365.333C476.5 367.635 460.606 369.5 441 369.5 421.394 369.5 405.5 367.635 405.5 365.333Z" stroke="#6D177F" stroke-linejoin="round" stroke-miterlimit="10" fill="none" fill-rule="evenodd"/><text font-family="Arial,Arial_MSFontService,sans-serif" font-weight="400" font-size="13" transform="translate(415.016 364)">KV store</text><path d="M412 322.167 412 337.728 411 337.728 411 322.167ZM407.5 323.5 411.5 315.5 415.5 323.5ZM415.5 336.395 411.5 344.395 407.5 336.395Z" fill="#6C147F"/><rect x="599" y="267" width="151" height="143" stroke="#A5CA1A" stroke-width="4" stroke-linejoin="round" stroke-miterlimit="10" fill="none"/><text font-family="Arial,Arial_MSFontService,sans-serif" font-style="italic" font-weight="400" font-size="15" transform="translate(732.685 314)">gGet<tspan font-size="13" x="-255.295" y="50">deliver</tspan><tspan font-size="13" x="-311.612" y="20">Put/Get</tspan><tspan font-size="13" x="-400.278" y="11">gPuts</tspan><tspan font-style="normal" font-weight="700" font-size="19" x="-520.113" y="124">DO</tspan><tspan font-style="normal" font-weight="700" font-size="19" x="-265.691" y="123">SP</tspan><tspan font-style="normal" font-weight="700" font-size="19" x="72.978" y="123">DU</tspan><tspan fill="#A5CA1A" font-style="normal" font-weight="700" font-size="19" x="-112.029" y="120">Blockchain</tspan></text><rect x="778.5" y="317.5" width="65" height="20" stroke="#008891" stroke-linejoin="round" stroke-miterlimit="10" fill="none"/><text fill="#008891" font-family="Arial,Arial_MSFontService,sans-serif" font-weight="400" font-size="11" transform="translate(788.889 331)">ADS_DU</text><rect x="774.5" y="382.5" width="122" height="23" stroke="#A5CA1A" stroke-linejoin="round" stroke-miterlimit="10" fill="none"/><text font-family="Arial,Arial_MSFontService,sans-serif" font-weight="400" font-size="13" transform="translate(785.764 399)">Blockchain client</text><path d="M682 353.5 682 371.465 681 371.465 681 353.5ZM685.5 370.132 681.5 378.132 677.5 370.132Z" fill="#E64110"/><path d="M869 331.167 869 376.727 868 376.727 868 331.167ZM864.5 332.5 868.5 324.5 872.5 332.5Z" fill="#E64110"/><text font-family="Arial,Arial_MSFontService,sans-serif" font-style="italic" font-weight="400" font-size="13" transform="translate(824.929 366)">deliver</text><path d="M809 358.167 809 376.132 808 376.132 808 358.167ZM804.5 359.5 808.5 351.5 812.5 359.5Z" fill="#6C147F"/><text font-family="Arial,Arial_MSFontService,sans-serif" font-style="italic" font-weight="400" font-size="13" transform="translate(761.019 365)">deliver</text><path d="M735.177 393.164 764.672 393.89 764.648 394.89 735.152 394.164ZM736.399 397.696 728.5 393.5 736.596 389.698ZM763.425 390.359 771.325 394.554 763.229 398.356Z" fill="#A4CA15"/><path d="M1.17328e-06-0.5 38.0742-0.499911 38.0742 0.500089-1.17328e-06 0.5ZM36.7409-3.99991 44.7409 0.000104987 36.7409 4.00009Z" fill="#688387" transform="matrix(-1 0 0 1 768.241 321.5)"/><path d="M650 354.5 650 372.465 649 372.465 649 354.5ZM653.5 371.132 649.5 379.132 645.5 371.132Z" fill="#E64110"/><text font-family="Arial,Arial_MSFontService,sans-serif" font-style="italic" font-weight="400" font-size="13" transform="translate(601.324 368)">request</text><path d="M0.5-9.08358e-07 0.500093 51.1227-0.499907 51.1227-0.5 9.08358e-07ZM4.00009 49.7894 0.000104987 57.7894-3.99991 49.7894Z" fill="#E64110" transform="matrix(1 0 0 -1 520.5 375.289)"/><text font-family="Arial,Arial_MSFontService,sans-serif" font-style="italic" font-weight="400" font-size="13" transform="translate(501.377 342)">request</text></g></svg>